<svg width="668" height="668" viewBox="0 0 668 668" fill="none" xmlns="http://www.w3.org/2000/svg">
<g clip-path="url(#clip0_1_29)">
<path d="M191.106 425.037L240.603 474.535L87.8684 627.27C74.2 640.938 52.0393 640.938 38.3709 627.27V627.27C24.7026 613.601 24.7026 591.441 38.3709 577.772L191.106 425.037Z" fill="url(#paint0_linear_1_29)"/>
<path d="M363.287 71.8373C426.747 8.37714 529.636 8.37715 593.096 71.8373V71.8373C656.556 135.298 656.556 238.187 593.096 301.647L337.477 557.266C333.572 561.171 327.24 561.171 323.335 557.266L107.667 341.599C103.762 337.693 103.762 331.362 107.667 327.456L363.287 71.8373Z" fill="#FD0FBF"/>
<mask id="mask0_1_29" style="mask-type:alpha" maskUnits="userSpaceOnUse" x="233" y="-21" width="440" height="215">
<path d="M672.646 193.813L233.532 186.035L305.657 67.2411L420.209 -20.4401L593.45 8.55129L672.646 193.813Z" fill="#A60C98"/>
</mask>
<g mask="url(#mask0_1_29)">
<path d="M363.287 71.8373C426.747 8.37714 529.636 8.37715 593.096 71.8373V71.8373C656.556 135.298 656.556 238.187 593.096 301.647L337.477 557.266C333.572 561.171 327.24 561.171 323.335 557.266L107.667 341.599C103.762 337.693 103.762 331.362 107.667 327.456L363.287 71.8373Z" fill="#4F46E5" fill-opacity="0.3"/>
</g>
</g>
<defs>
<linearGradient id="paint0_linear_1_29" x1="168.479" y1="497.162" x2="38.3709" y2="627.27" gradientUnits="userSpaceOnUse">
<stop stop-color="#6422B0"/>
<stop offset="1" stop-color="#AB0D9B"/>
</linearGradient>
<clipPath id="clip0_1_29">
<rect width="668" height="668" fill="white"/>
</clipPath>
</defs>
</svg>
